<svg xmlns="http://www.w3.org/2000/svg" width="252.407" height="219.85" viewBox="0 0 252.407 219.85">
  <g id="undraw_developer_activity_re_39tg" transform="translate(0 0)">
    <path id="Path_2186" data-name="Path 2186" d="M402.311,194a105.116,105.116,0,0,1-29.335,72.974q-1.7,1.785-3.5,3.484-2.738,2.6-5.659,5.006a105.034,105.034,0,0,1-64.569,23.946q-1.18.027-2.368.027c-18.824,0-42.5-10.054-63.985-23.972q-2.666-1.727-5.285-3.534-1.224-.837-2.436-1.7A216.768,216.768,0,0,1,201.632,251a152.569,152.569,0,0,1-13.577-14.518c-16.509-20.364-20.15-38.713,3.386-42.484q4.18-.668,8.113-1.427,5.7-1.1,10.906-2.365,7.015-1.7,13.182-3.7,2.074-.668,4.054-1.362c19.509-6.852,32.567-15.788,41.455-25.483q2.261-2.462,4.169-4.983a70.054,70.054,0,0,0,5.291-8.048,75.647,75.647,0,0,0,5.463-12.182l.08-.231c7.072-20.4,4.92-39.321,12.722-45.654,33.35-27.074,74.87,11.482,94.358,56.949q1.473,3.437,2.772,6.915.583,1.554,1.125,3.113,1.425,4.064,2.585,8.149.445,1.558.849,3.113c.288,1.119.564,2.235.819,3.35A106.278,106.278,0,0,1,402.311,194Z" transform="translate(-174.731 -79.585)" fill="#f2f2f2"/>
    <path id="Path_2187" data-name="Path 2187" d="M424.547,718.538q-1.18.027-2.368.027c-18.824,0-42.5-10.054-63.985-23.972q-2.666-1.727-5.285-3.534l1.531-9.318,46.357-6.155,23.266,17.791Z" transform="translate(-300.033 -498.715)" fill="#2f2e41"/>
    <path id="Path_2188" data-name="Path 2188" d="M584.346,259.635h-6.606a.772.772,0,0,0-.772.771v6.609a.77.77,0,0,0,.772.769h6.606a.772.772,0,0,0,.772-.769v-6.609a.774.774,0,0,0-.772-.771Z" transform="translate(-457.6 -206.203)" fill="#fff"/>
    <path id="Path_2189" data-name="Path 2189" d="M584.346,297.585h-6.606a.772.772,0,0,0-.772.772v6.609a.769.769,0,0,0,.772.769h6.606a.771.771,0,0,0,.772-.769v-6.609a.774.774,0,0,0-.772-.772Z" transform="translate(-457.6 -232.891)" fill="#e6e6e6"/>
    <path id="Path_2190" data-name="Path 2190" d="M584.346,335.535h-6.606a.772.772,0,0,0-.772.772v6.606a.77.77,0,0,0,.772.772h6.606a.772.772,0,0,0,.772-.772v-6.606A.774.774,0,0,0,584.346,335.535Z" transform="translate(-457.6 -259.579)" fill="#e6e6e6"/>
    <path id="Path_2191" data-name="Path 2191" d="M585.106,374.12a.777.777,0,0,0-.76-.635H577.74a.772.772,0,0,0-.771.772v6.606a.77.77,0,0,0,.771.772h6.606a.772.772,0,0,0,.772-.772v-6.606a.682.682,0,0,0-.012-.136Z" transform="translate(-457.6 -286.266)" fill="#e6e6e6"/>
    <path id="Path_2192" data-name="Path 2192" d="M584.646,411.494a.783.783,0,0,0-.3-.059h-6.606a.77.77,0,0,0-.771.772v6.606a.768.768,0,0,0,.771.772h6.606a.772.772,0,0,0,.772-.772v-6.606A.776.776,0,0,0,584.646,411.494Z" transform="translate(-457.6 -312.954)" fill="#e6e6e6"/>
    <path id="Path_2193" data-name="Path 2193" d="M631.107,259.635H624.5a.772.772,0,0,0-.772.771v6.609a.769.769,0,0,0,.772.769h6.606a.771.771,0,0,0,.772-.769v-6.609A.774.774,0,0,0,631.107,259.635Z" transform="translate(-490.483 -206.203)" fill="#e6e6e6"/>
    <path id="Path_2194" data-name="Path 2194" d="M631.107,297.585H624.5a.772.772,0,0,0-.772.772v6.609a.769.769,0,0,0,.772.769h6.606a.771.771,0,0,0,.772-.769v-6.609a.774.774,0,0,0-.772-.772Z" transform="translate(-490.483 -232.891)" fill="#6c63ff"/>
    <path id="Path_2195" data-name="Path 2195" d="M631.107,335.535H624.5a.772.772,0,0,0-.772.772v6.606a.77.77,0,0,0,.772.772h6.606a.772.772,0,0,0,.772-.772v-6.606A.774.774,0,0,0,631.107,335.535Z" transform="translate(-490.483 -259.579)" fill="#6c63ff"/>
    <path id="Path_2196" data-name="Path 2196" d="M631.107,373.485H624.5a.769.769,0,0,0-.73.528.736.736,0,0,0-.041.243v6.606a.77.77,0,0,0,.771.772h6.606a.772.772,0,0,0,.772-.772v-6.606A.774.774,0,0,0,631.107,373.485Z" transform="translate(-490.484 -286.267)" fill="#6c63ff"/>
    <path id="Path_2197" data-name="Path 2197" d="M631.107,411.435H624.5a.77.77,0,0,0-.772.772v6.606a.77.77,0,0,0,.772.772h6.606a.772.772,0,0,0,.772-.772v-6.606A.772.772,0,0,0,631.107,411.435Z" transform="translate(-490.483 -312.954)" fill="#e6e6e6"/>
    <path id="Path_2198" data-name="Path 2198" d="M677.867,259.635h-6.606a.772.772,0,0,0-.772.771v6.609a.769.769,0,0,0,.772.769h6.606a.771.771,0,0,0,.772-.769v-6.609A.774.774,0,0,0,677.867,259.635Z" transform="translate(-523.367 -206.203)" fill="#6c63ff"/>
    <path id="Path_2199" data-name="Path 2199" d="M677.867,297.585h-6.606a.772.772,0,0,0-.772.772v6.609a.769.769,0,0,0,.771.769h6.606a.771.771,0,0,0,.772-.769v-6.609a.774.774,0,0,0-.772-.772Z" transform="translate(-523.367 -232.891)" fill="#6c63ff"/>
    <path id="Path_2200" data-name="Path 2200" d="M677.867,335.535h-6.606a.772.772,0,0,0-.772.772v6.606a.77.77,0,0,0,.772.772h6.606a.772.772,0,0,0,.772-.772v-6.606A.774.774,0,0,0,677.867,335.535Z" transform="translate(-523.367 -259.579)" fill="#e6e6e6"/>
    <path id="Path_2201" data-name="Path 2201" d="M677.867,373.485h-6.606a.772.772,0,0,0-.772.772v6.606a.77.77,0,0,0,.771.772h6.606a.772.772,0,0,0,.772-.772v-6.606A.774.774,0,0,0,677.867,373.485Z" transform="translate(-523.367 -286.267)" fill="#6c63ff"/>
    <path id="Path_2202" data-name="Path 2202" d="M677.867,411.435h-6.606a.77.77,0,0,0-.772.772v6.606a.77.77,0,0,0,.772.772h6.606a.772.772,0,0,0,.772-.772v-6.606A.772.772,0,0,0,677.867,411.435Z" transform="translate(-523.367 -312.954)" fill="#6c63ff"/>
    <path id="Path_2203" data-name="Path 2203" d="M724.627,259.635h-6.606a.772.772,0,0,0-.772.771v6.609a.77.77,0,0,0,.772.769h6.606a.771.771,0,0,0,.772-.769v-6.609A.774.774,0,0,0,724.627,259.635Z" transform="translate(-556.25 -206.203)" fill="#6c63ff"/>
    <path id="Path_2204" data-name="Path 2204" d="M724.626,297.585h-6.606a.772.772,0,0,0-.772.772v6.609a.769.769,0,0,0,.772.769h6.606a.771.771,0,0,0,.772-.769v-6.609a.774.774,0,0,0-.772-.772Z" transform="translate(-556.25 -232.891)" fill="#fff"/>
    <path id="Path_2205" data-name="Path 2205" d="M724.626,335.535h-6.606a.772.772,0,0,0-.772.772v6.606a.77.77,0,0,0,.772.772h6.606a.772.772,0,0,0,.772-.772v-6.606A.774.774,0,0,0,724.626,335.535Z" transform="translate(-556.25 -259.579)" fill="#fff"/>
    <path id="Path_2206" data-name="Path 2206" d="M724.626,373.485h-6.606a.772.772,0,0,0-.772.772v6.606a.77.77,0,0,0,.772.772h6.606a.772.772,0,0,0,.772-.772v-6.606A.774.774,0,0,0,724.626,373.485Z" transform="translate(-556.25 -286.267)" fill="#e6e6e6"/>
    <path id="Path_2207" data-name="Path 2207" d="M724.626,411.435h-6.606a.77.77,0,0,0-.772.772v6.606a.77.77,0,0,0,.772.772h6.606a.772.772,0,0,0,.772-.772v-6.606A.772.772,0,0,0,724.626,411.435Z" transform="translate(-556.25 -312.954)" fill="#6c63ff"/>
    <path id="Path_2208" data-name="Path 2208" d="M771.386,259.635h-6.609a.771.771,0,0,0-.769.771v6.609a.769.769,0,0,0,.768.769h6.609a.771.771,0,0,0,.772-.769v-6.609A.774.774,0,0,0,771.386,259.635Z" transform="translate(-589.134 -206.203)" fill="#fff"/>
    <path id="Path_2209" data-name="Path 2209" d="M771.386,297.585h-6.609a.771.771,0,0,0-.769.772v6.609a.769.769,0,0,0,.768.769h6.609a.771.771,0,0,0,.772-.769v-6.609a.774.774,0,0,0-.772-.772Z" transform="translate(-589.134 -232.891)" fill="#fff"/>
    <path id="Path_2210" data-name="Path 2210" d="M771.387,335.535h-6.609a.771.771,0,0,0-.769.772v6.606a.77.77,0,0,0,.769.772h6.609a.772.772,0,0,0,.771-.772v-6.606A.774.774,0,0,0,771.387,335.535Z" transform="translate(-589.134 -259.579)" fill="#fff"/>
    <path id="Path_2211" data-name="Path 2211" d="M771.387,373.485h-6.609a.771.771,0,0,0-.769.772v6.606a.769.769,0,0,0,.769.772h6.609a.772.772,0,0,0,.771-.772v-6.606a.774.774,0,0,0-.772-.772Z" transform="translate(-589.134 -286.267)" fill="#6c63ff"/>
    <path id="Path_2212" data-name="Path 2212" d="M771.387,411.435h-6.609a.769.769,0,0,0-.769.772v6.606a.77.77,0,0,0,.769.772h6.609a.772.772,0,0,0,.771-.772v-6.606A.772.772,0,0,0,771.387,411.435Z" transform="translate(-589.134 -312.954)" fill="#e6e6e6"/>
    <path id="Path_2213" data-name="Path 2213" d="M818.146,259.635h-6.609a.771.771,0,0,0-.769.771v6.609a.769.769,0,0,0,.768.769h6.609a.771.771,0,0,0,.772-.769v-6.609A.774.774,0,0,0,818.146,259.635Z" transform="translate(-622.017 -206.203)" fill="#fff"/>
    <path id="Path_2214" data-name="Path 2214" d="M818.146,297.585h-6.609a.771.771,0,0,0-.769.772v6.609a.769.769,0,0,0,.768.769h6.609a.771.771,0,0,0,.772-.769v-6.609A.774.774,0,0,0,818.146,297.585Z" transform="translate(-622.017 -232.891)" fill="#fff"/>
    <path id="Path_2215" data-name="Path 2215" d="M818.146,335.535h-6.609a.771.771,0,0,0-.769.772v6.606a.77.77,0,0,0,.769.772h6.609a.772.772,0,0,0,.772-.772v-6.606A.774.774,0,0,0,818.146,335.535Z" transform="translate(-622.017 -259.579)" fill="#6c63ff"/>
    <path id="Path_2216" data-name="Path 2216" d="M818.146,373.485h-6.609a.772.772,0,0,0-.769.772v6.606a.769.769,0,0,0,.769.772h6.609a.772.772,0,0,0,.772-.772v-6.606a.774.774,0,0,0-.772-.772Z" transform="translate(-622.017 -286.267)" fill="#e6e6e6"/>
    <path id="Path_2217" data-name="Path 2217" d="M818.146,411.435h-6.609a.77.77,0,0,0-.769.772v6.606a.77.77,0,0,0,.769.772h6.609a.772.772,0,0,0,.772-.772v-6.606A.772.772,0,0,0,818.146,411.435Z" transform="translate(-622.017 -312.954)" fill="#fff"/>
    <path id="Path_2218" data-name="Path 2218" d="M864.906,259.635H858.3a.771.771,0,0,0-.769.771v6.609a.769.769,0,0,0,.768.769h6.609a.771.771,0,0,0,.772-.769v-6.609A.774.774,0,0,0,864.906,259.635Z" transform="translate(-654.9 -206.203)" fill="#6c63ff"/>
    <path id="Path_2219" data-name="Path 2219" d="M864.906,297.585H858.3a.771.771,0,0,0-.769.772v6.609a.769.769,0,0,0,.768.769h6.609a.771.771,0,0,0,.772-.769v-6.609A.774.774,0,0,0,864.906,297.585Z" transform="translate(-654.9 -232.891)" fill="#6c63ff"/>
    <path id="Path_2220" data-name="Path 2220" d="M864.906,335.535H858.3a.771.771,0,0,0-.769.772v6.606a.769.769,0,0,0,.769.772h6.609a.772.772,0,0,0,.772-.772v-6.606A.774.774,0,0,0,864.906,335.535Z" transform="translate(-654.9 -259.579)" fill="#e6e6e6"/>
    <path id="Path_2221" data-name="Path 2221" d="M864.906,373.485H858.3a.771.771,0,0,0-.769.772v6.606a.769.769,0,0,0,.769.772h6.609a.772.772,0,0,0,.772-.772v-6.606A.774.774,0,0,0,864.906,373.485Z" transform="translate(-654.9 -286.267)" fill="#fff"/>
    <path id="Path_2222" data-name="Path 2222" d="M864.906,411.435H858.3a.77.77,0,0,0-.769.772v6.606a.77.77,0,0,0,.769.772h6.609a.772.772,0,0,0,.772-.772v-6.606A.772.772,0,0,0,864.906,411.435Z" transform="translate(-654.9 -312.954)" fill="#6c63ff"/>
    <path id="Path_2223" data-name="Path 2223" d="M911.666,259.635h-6.609a.771.771,0,0,0-.769.771v6.609a.769.769,0,0,0,.768.769h6.609a.771.771,0,0,0,.771-.769v-6.609A.774.774,0,0,0,911.666,259.635Z" transform="translate(-687.784 -206.203)" fill="#6c63ff"/>
    <path id="Path_2224" data-name="Path 2224" d="M911.666,297.585h-6.609a.771.771,0,0,0-.769.772v6.609a.769.769,0,0,0,.768.769h6.609a.771.771,0,0,0,.771-.769v-6.609A.774.774,0,0,0,911.666,297.585Z" transform="translate(-687.784 -232.891)" fill="#6c63ff"/>
    <path id="Path_2225" data-name="Path 2225" d="M911.666,335.535h-6.609a.771.771,0,0,0-.769.772v6.606a.769.769,0,0,0,.769.772h6.609a.772.772,0,0,0,.771-.772v-6.606a.774.774,0,0,0-.771-.772Z" transform="translate(-687.784 -259.579)" fill="#e6e6e6"/>
    <path id="Path_2226" data-name="Path 2226" d="M911.666,373.485h-6.609a.771.771,0,0,0-.769.772v6.606a.769.769,0,0,0,.769.772h6.609a.772.772,0,0,0,.771-.772v-6.606A.774.774,0,0,0,911.666,373.485Z" transform="translate(-687.784 -286.266)" fill="#6c63ff"/>
    <path id="Path_2227" data-name="Path 2227" d="M911.666,411.435h-6.609a.769.769,0,0,0-.769.772v6.606a.769.769,0,0,0,.769.772h6.609a.772.772,0,0,0,.771-.772v-6.606A.772.772,0,0,0,911.666,411.435Z" transform="translate(-687.784 -312.954)" fill="#6c63ff"/>
    <path id="Path_2228" data-name="Path 2228" d="M958.427,259.635h-6.609a.771.771,0,0,0-.769.771v6.609a.769.769,0,0,0,.768.769h6.609a.771.771,0,0,0,.771-.769v-6.609A.774.774,0,0,0,958.427,259.635Z" transform="translate(-720.667 -206.203)" fill="#e6e6e6"/>
    <path id="Path_2229" data-name="Path 2229" d="M958.427,297.585h-6.609a.771.771,0,0,0-.769.772v6.609a.769.769,0,0,0,.768.769h6.609a.771.771,0,0,0,.771-.769v-6.609A.774.774,0,0,0,958.427,297.585Z" transform="translate(-720.667 -232.891)" fill="#6c63ff"/>
    <path id="Path_2230" data-name="Path 2230" d="M958.427,335.535h-6.609a.771.771,0,0,0-.769.772v6.606a.769.769,0,0,0,.769.772h6.609a.772.772,0,0,0,.771-.772v-6.606a.774.774,0,0,0-.771-.772Z" transform="translate(-720.667 -259.579)" fill="#6c63ff"/>
    <path id="Path_2231" data-name="Path 2231" d="M958.427,373.485h-6.609a.771.771,0,0,0-.769.772v6.606a.769.769,0,0,0,.769.772h6.609a.772.772,0,0,0,.771-.772v-6.606A.774.774,0,0,0,958.427,373.485Z" transform="translate(-720.667 -286.266)" fill="#6c63ff"/>
    <path id="Path_2232" data-name="Path 2232" d="M958.427,411.435h-6.609a.77.77,0,0,0-.769.772v6.606a.769.769,0,0,0,.769.772h6.609a.772.772,0,0,0,.771-.772v-6.606A.772.772,0,0,0,958.427,411.435Z" transform="translate(-720.667 -312.954)" fill="#e6e6e6"/>
    <path id="Path_2233" data-name="Path 2233" d="M1005.186,259.635h-6.609a.771.771,0,0,0-.769.771v6.609a.769.769,0,0,0,.768.769h6.609a.771.771,0,0,0,.772-.769v-6.609A.774.774,0,0,0,1005.186,259.635Z" transform="translate(-753.551 -206.203)" fill="#e6e6e6"/>
    <path id="Path_2234" data-name="Path 2234" d="M1005.186,297.585h-6.609a.771.771,0,0,0-.769.772v6.609a.769.769,0,0,0,.768.769h6.609a.771.771,0,0,0,.772-.769v-6.609A.774.774,0,0,0,1005.186,297.585Z" transform="translate(-753.551 -232.891)" fill="#e6e6e6"/>
    <path id="Path_2235" data-name="Path 2235" d="M1005.186,335.535h-6.609a.771.771,0,0,0-.769.772v6.606a.77.77,0,0,0,.769.772h6.609a.772.772,0,0,0,.772-.772v-6.606a.774.774,0,0,0-.772-.772Z" transform="translate(-753.551 -259.579)" fill="#6c63ff"/>
    <path id="Path_2236" data-name="Path 2236" d="M1005.186,373.485h-6.609a.771.771,0,0,0-.769.772v6.606a.77.77,0,0,0,.769.772h6.609a.772.772,0,0,0,.772-.772v-6.606a.774.774,0,0,0-.772-.772Z" transform="translate(-753.551 -286.266)" fill="#e6e6e6"/>
    <path id="Path_2237" data-name="Path 2237" d="M1005.186,411.435h-6.609a.77.77,0,0,0-.769.772v6.606a.77.77,0,0,0,.769.772h6.609a.772.772,0,0,0,.772-.772v-6.606A.772.772,0,0,0,1005.186,411.435Z" transform="translate(-753.551 -312.954)" fill="#e6e6e6"/>
    <path id="Path_2238" data-name="Path 2238" d="M335.659,660h-.184l.157-.021Z" transform="translate(-235.919 -464.124)" fill="#2f2e41"/>
    <circle id="ab6171fa-7d69-4734-b81c-8dff60f9761b" cx="20.275" cy="20.275" r="20.275" transform="translate(63.653 32.172)" fill="#ffb6b6"/>
    <path id="bf427902-b9bf-4946-b5d7-5c1c7e04535e" d="M418.513,169.243s5.3-10.138-6.364-11.059c0,0-9.946-9.022-20.084-1.649,0,0-5.53,0-8.553,6.257,0,0-4.349-1.649-5.3,2.765,0,0-3.182,9.216,0,17.511s4.239,9.216,4.239,9.216-5.229-17.39,7.5-18.311,26.972-8.876,28.032,1.262,2.657,12.635,2.657,12.635S430.711,173.39,418.513,169.243Z" transform="translate(-316.829 -131.661)" fill="#2f2e41"/>
    <path id="Path_2239" data-name="Path 2239" d="M425.945,371.467l-.065.344-.733,3.87-5.066,26.768-.3,1.576-.629,3.333-.861,4.546-1.908,10.075-.546,2.888-.2,1.083-.071.38-.567,2.988-.172.9-1.383,10.247-1.208,8.93,4.042,4.042-2.41,2.41-1.582,9.06,0,.021H347.73q-3.917-2.537-7.722-5.232l.531-3.977s1.828-7.1,1.059-7.95-2.445-2.365-2.445-2.365l2.116-4.938.294-.685-.493-10.218-.012-.246-.163-3.368-.021-.433-.033-.65-.626-12.963-.012-.214-.19-3.929-.178-3.736-.077-1.576L339,386.682l-.516-10.707-.451-9.321,1.813-.614,19.393-6.591L367.269,349l16.72.125,8.185.062,13.657,12.666,3.107,1.484.024.012,2.229,1.065,5.65,2.7,5.974,2.855,3.065,1.463Z" transform="translate(-289.568 -269.051)" fill="#cacaca"/>
    <path id="Path_2240" data-name="Path 2240" d="M340.307,581.264a8.988,8.988,0,0,1-12.068-6.656l-31.623-4.486,10.993-12.435,28.344,6.167a9.036,9.036,0,0,1,4.353,17.411Z" transform="translate(-260.446 -415.804)" fill="#ffb6b6"/>
    <path id="Path_2241" data-name="Path 2241" d="M282.372,440.678a4.013,4.013,0,0,0-2.341-1.445l-12.974-2.7-1.332-.276a5.618,5.618,0,0,1-3.718-2.692,5.686,5.686,0,0,1-.727-2.344,5.606,5.606,0,0,1,.264-2.22l4.5-13.547,2.917-8.79a12.4,12.4,0,0,0,.62-3.279,12.864,12.864,0,0,0-2.692-8.573,12.67,12.67,0,0,0-14.544-4.048c-.074.027-.151.056-.226.086a12.637,12.637,0,0,0-7.511,8.431l-3.169,11.529L234.9,434.579a17.143,17.143,0,0,0,14.529,21.569l18.687,2.19,8.648,1.015a4.005,4.005,0,0,0,4.4-3.184,1.441,1.441,0,0,0,.033-.163l.208-1.282,1.76-10.8.018-.11A4,4,0,0,0,282.372,440.678Z" transform="translate(-216.61 -297.826)" fill="#cacaca"/>
    <path id="Path_2242" data-name="Path 2242" d="M495.006,572.062a8.988,8.988,0,0,0,11.008-8.292l30.674-8.9-12.637-10.76-27.191,10.1a9.036,9.036,0,0,0-1.854,17.851Z" transform="translate(-395.002 -406.256)" fill="#ffb6b6"/>
    <path id="Path_2243" data-name="Path 2243" d="M592.853,415.54l-14.589-33.576a12.707,12.707,0,0,0-6.015-6.336,12.868,12.868,0,0,0-2.606-.95c-.14-.036-.279-.068-.418-.095a12.5,12.5,0,0,0-5.781.107,12.705,12.705,0,0,0-8.114,6.449.288.288,0,0,0-.024.042,12.79,12.79,0,0,0-.11,11.529l.181.362,10.309,20.705a5.609,5.609,0,0,1-3.116,7.772l-.724.261-13.022,4.7a4.005,4.005,0,0,0-2.472,4.983l.033.1,3.65,11.68c.018.053.036.107.056.16a2.107,2.107,0,0,0,.119.294,4,4,0,0,0,4.692,2.235l7.027-1.855,1.433-.38,18.147-4.793a17.141,17.141,0,0,0,11.342-23.4Z" transform="translate(-435.937 -286.837)" fill="#cacaca"/>
    <path id="Path_2244" data-name="Path 2244" d="M219.629,608.285A152.575,152.575,0,0,0,233.206,622.8H367.333a4.88,4.88,0,0,1,4.873,4.876l.193,33.988a105.481,105.481,0,0,0,22.99-14.4q2.92-2.4,5.659-5.007,1.794-1.7,3.5-3.484a105.537,105.537,0,0,0,20.423-30.489Z" transform="translate(-206.305 -451.387)" fill="#3f3d56"/>
    <path id="Path_2245" data-name="Path 2245" d="M766.8,711.025q-1.7,1.785-3.5,3.484H734.749v-3.484Z" transform="translate(-568.557 -523.638)" fill="#fff"/>
    <path id="Path_2246" data-name="Path 2246" d="M395.509,333.5a1.643,1.643,0,0,0-1.445-.861h-97.29a1.648,1.648,0,0,0-1.644,1.647v58.231H395.71V334.282A1.6,1.6,0,0,0,395.509,333.5Z" transform="translate(-259.399 -257.539)" fill="#3f3d56"/>
    <path id="Path_2247" data-name="Path 2247" d="M294.832,529.092v7.186a2.268,2.268,0,0,0,2.268,2.268h37.124v14.181h-.493a.294.294,0,0,0-.295.295v.986a.3.3,0,0,0,.295.295h23.046a.3.3,0,0,0,.295-.295v-.986a.3.3,0,0,0-.295-.295h-.493V538.547h37.124a2.268,2.268,0,0,0,2.268-2.268v-7.186Z" transform="translate(-259.191 -395.696)" fill="#3f3d56"/>
    <circle id="Ellipse_211" data-name="Ellipse 211" cx="9.291" cy="9.291" r="9.291" transform="translate(75.555 94.191)" fill="#6c63ff"/>
    <path id="Path_2248" data-name="Path 2248" d="M422.958,198.542h-1.484c0-11.218-11.1-18.568-22.3-18.574a24.448,24.448,0,0,0-4.852.472c-1.8.359-3.665.789-5.5,1.35-7.232,2.217-13.939,6.5-13.939,16.752a23.322,23.322,0,0,0,.754,5.9l-1.436.374a24.894,24.894,0,0,1-.8-6.274c0-8.956,3.677-15.108,10.028-18.776a32.4,32.4,0,0,1,12.081-3.778,28.825,28.825,0,0,1,5.861-.178C414.248,176.736,422.958,186.612,422.958,198.542Z" transform="translate(-314.442 -147.202)" fill="#6c63ff"/>
    <path id="Path_2249" data-name="Path 2249" d="M528.3,235.438l-.585-4.321a4.722,4.722,0,0,0-5.416-4.024l-.929.128a1.953,1.953,0,0,0-1.674,2.2l1.35,9.953a1.952,1.952,0,0,0,1.573,1.653,1.828,1.828,0,0,0,.362.036,1.935,1.935,0,0,0,.261-.018l1.039-.14a4.686,4.686,0,0,0,3.187-1.908c.08-.113.157-.228.229-.347A4.97,4.97,0,0,0,528.3,235.438Z" transform="translate(-417.311 -183.276)" fill="#6c63ff"/>
    <path id="Path_2250" data-name="Path 2250" d="M520.771,228.275a1.908,1.908,0,0,0-.692.57,1.943,1.943,0,0,0-.383,1.445l1.35,9.953a1.952,1.952,0,0,0,1.573,1.653Z" transform="translate(-417.311 -184.149)" fill="#fff"/>
    <path id="Path_2251" data-name="Path 2251" d="M543.827,238.393l-.585-4.321a4.662,4.662,0,0,0-1.484-2.837l1.344,9.9a1.836,1.836,0,0,0,.122.463A4.969,4.969,0,0,0,543.827,238.393Z" transform="translate(-432.839 -186.231)" fill="#3f3d56"/>
    <ellipse id="Ellipse_212" data-name="Ellipse 212" cx="0.742" cy="2.077" rx="0.742" ry="2.077" transform="translate(105.074 51.257) rotate(-7.726)" fill="#3f3d56"/>
    <ellipse id="Ellipse_213" data-name="Ellipse 213" cx="0.742" cy="2.077" rx="0.742" ry="2.077" transform="translate(104.184 45.915) rotate(-7.726)" fill="#3f3d56"/>
    <ellipse id="Ellipse_214" data-name="Ellipse 214" cx="0.742" cy="2.077" rx="0.742" ry="2.077" transform="translate(109.822 47.993) rotate(-7.726)" fill="#3f3d56"/>
    <path id="Path_2252" data-name="Path 2252" d="M422.935,179.968a24.449,24.449,0,0,0-4.852.472c-1.8.359-3.665.789-5.5,1.35-2.864-.139-4.971-.881-5.4-2.024a32.4,32.4,0,0,1,12.081-3.778,28.824,28.824,0,0,1,5.861-.178,1.7,1.7,0,0,1,.807,1.134C426.078,177.977,424.9,179.075,422.935,179.968Z" transform="translate(-338.204 -147.202)" fill="#3f3d56"/>
    <path id="Path_2253" data-name="Path 2253" d="M375.759,261.518l-2.285-9.5a1.788,1.788,0,0,0-1.448-1.35,2,2,0,0,0-.3-.024,1.789,1.789,0,0,0-.415.051l-.884.214a4.423,4.423,0,0,0-3.261,5.33l1.024,4.262a4.7,4.7,0,0,0,1.585,2.558,4.157,4.157,0,0,0,.4.288,4.395,4.395,0,0,0,3.374.546l.881-.214a1.734,1.734,0,0,0,.644-.3A1.778,1.778,0,0,0,375.759,261.518Z" transform="translate(-309.974 -199.881)" fill="#6c63ff"/>
    <ellipse id="Ellipse_215" data-name="Ellipse 215" cx="0.742" cy="2.077" rx="0.742" ry="2.077" transform="translate(59.302 56.005) rotate(-13.53)" fill="#3f3d56"/>
    <ellipse id="Ellipse_216" data-name="Ellipse 216" cx="0.742" cy="2.077" rx="0.742" ry="2.077" transform="translate(56.334 56.895) rotate(-13.53)" fill="#3f3d56"/>
    <path id="Path_2254" data-name="Path 2254" d="M387.764,261.194l-2.285-9.5a1.938,1.938,0,0,0-1.57-1.46l3.119,12.974a1.932,1.932,0,0,0,.736-2.015Z" transform="translate(-321.833 -199.592)" fill="#fff"/>
    <path id="Path_2255" data-name="Path 2255" d="M367.681,261.432a1.922,1.922,0,0,0-.347-.727,4.37,4.37,0,0,0-.169,2.609l1.024,4.262a4.7,4.7,0,0,0,1.585,2.558Z" transform="translate(-309.97 -206.955)" fill="#3f3d56"/>
  </g>
</svg>
